<svg width="65" height="46" viewBox="0 0 65 46" fill="none" xmlns="http://www.w3.org/2000/svg">
<path d="M22.7539 33.0078C22.7539 34.2448 23.1527 35.2783 23.9502 36.1084C24.7477 36.9385 25.7975 37.3535 27.0996 37.3535C28.2064 37.3535 29.0446 37.1175 29.6143 36.6455C30.1839 36.1735 30.4688 35.9375 30.4688 35.9375L29.3945 34.4727C29.3945 34.4727 29.1829 34.6436 28.7598 34.9854C28.3366 35.3271 27.8158 35.498 27.1973 35.498C26.416 35.498 25.8301 35.2295 25.4395 34.6924C25.0488 34.1553 24.8535 33.5775 24.8535 32.959C24.8535 32.373 25.0488 31.8359 25.4395 31.3477C25.8301 30.8594 26.416 30.6152 27.1973 30.6152C27.7832 30.6152 28.2796 30.7536 28.6865 31.0303C29.0934 31.307 29.2969 31.4453 29.2969 31.4453L30.2246 29.8828C30.2246 29.8828 29.9642 29.6875 29.4434 29.2969C28.9225 28.9062 28.1413 28.7109 27.0996 28.7109C25.8626 28.7109 24.8291 29.126 23.999 29.9561C23.1689 30.7861 22.7539 31.8034 22.7539 33.0078ZM37.5 31.0059V32.2754H40.0391V34.1797H37.5V37.3047H35.3027V30.2734V30.2246C35.7259 29.7363 36.2223 29.3783 36.792 29.1504C37.3617 28.9225 37.9557 28.8086 38.5742 28.8086C39.0951 28.8086 39.6484 28.8981 40.2344 29.0771C40.8203 29.2562 41.2923 29.541 41.6504 29.9316V29.9805L40.6738 31.5918L40.625 31.543C40.3646 31.3151 40.0553 31.1198 39.6973 30.957C39.3392 30.7943 38.9974 30.7129 38.6719 30.7129C38.444 30.7129 38.2324 30.7373 38.0371 30.7861C37.8418 30.835 37.6628 30.9082 37.5 31.0059ZM31.543 37.207H33.5938V28.8574H31.543V37.207ZM35.3516 4.10156C35.3841 4.03646 35.4085 3.98763 35.4248 3.95508C35.4411 3.92253 35.4655 3.88997 35.498 3.85742C35.498 3.79232 35.5143 3.73535 35.5469 3.68652C35.5794 3.6377 35.5957 3.58073 35.5957 3.51562C35.6283 3.45052 35.6445 3.38542 35.6445 3.32031C35.6445 3.25521 35.6445 3.20638 35.6445 3.17383C35.6445 3.10872 35.6283 3.04362 35.5957 2.97852C35.5632 2.91341 35.5306 2.84831 35.498 2.7832C35.4329 2.75065 35.376 2.70996 35.3271 2.66113C35.2783 2.6123 35.2376 2.57161 35.2051 2.53906C35.14 2.50651 35.0749 2.49023 35.0098 2.49023C34.9447 2.49023 34.8796 2.49023 34.8145 2.49023H30.2734C30.2083 2.49023 30.1432 2.49837 30.0781 2.51465C30.013 2.53093 29.9479 2.55534 29.8828 2.58789C29.8177 2.58789 29.7607 2.62044 29.7119 2.68555C29.6631 2.75065 29.6224 2.79948 29.5898 2.83203L4.44336 43.5059H11.084C13.7533 39.1439 16.1133 35.3109 18.1641 32.0068C20.2148 28.7028 22.1436 25.5778 23.9502 22.6318C25.7568 19.6859 27.5635 16.7562 29.3701 13.8428C31.1768 10.9294 33.1706 7.68229 35.3516 4.10156ZM54.1016 43.5059H60.7422L37.3047 5.66406L34.0332 10.9375C35.6934 13.6719 37.3617 16.3981 39.0381 19.1162C40.7145 21.8343 42.3909 24.5443 44.0674 27.2461C45.7438 29.9479 47.4202 32.6579 49.0967 35.376C50.7731 38.0941 52.4414 40.804 54.1016 43.5059ZM19.9219 33.8379C20.1823 35.0098 20.5973 36.1084 21.167 37.1338C21.7367 38.1592 22.4284 39.0788 23.2422 39.8926C24.3815 40.9993 25.6999 41.8864 27.1973 42.5537C28.6947 43.221 30.306 43.5547 32.0312 43.5547H32.1289C41.5365 43.5221 46.1263 43.514 45.8984 43.5303C45.6706 43.5465 41.1621 43.5547 32.373 43.5547H51.2207C49.6582 41.0482 48.1038 38.5335 46.5576 36.0107C45.0114 33.488 43.457 30.9652 41.8945 28.4424C40.332 25.9196 38.7777 23.3968 37.2314 20.874C35.6852 18.3512 34.1309 15.8366 32.5684 13.3301L19.9219 33.8379ZM30.2734 0H34.8633C35.1562 0 35.4411 0.0325508 35.7178 0.0976562C35.9945 0.162762 36.2467 0.260418 36.4746 0.390625C36.735 0.520832 36.9629 0.683594 37.1582 0.878906C37.3535 1.07422 37.5326 1.30208 37.6953 1.5625L63.916 44.043C64.0137 44.1406 64.0788 44.2464 64.1113 44.3604C64.1439 44.4743 64.1602 44.6126 64.1602 44.7754C64.1602 45.1009 64.0462 45.3857 63.8184 45.6299C63.5905 45.874 63.2975 45.9961 62.9395 45.9961H32.0801C30.0293 45.9961 28.0924 45.6055 26.2695 44.8242C24.4466 44.043 22.8678 42.985 21.5332 41.6504C20.8171 40.9342 20.1823 40.153 19.6289 39.3066C19.0755 38.4603 18.6035 37.5651 18.2129 36.6211L12.793 45.4102L12.4512 45.9961H0L1.17188 44.0918L27.4902 1.5625C27.653 1.30208 27.832 1.07422 28.0273 0.878906C28.2227 0.683594 28.4342 0.520832 28.6621 0.390625C28.9225 0.260418 29.1829 0.162762 29.4434 0.0976562C29.7038 0.0325508 29.9805 0 30.2734 0Z" fill="white"/>
</svg>
